<svg width="18" height="18" viewBox="0 0 18 18" fill="none" xmlns="http://www.w3.org/2000/svg">
<path d="M9.28125 1.40625C7.34248 1.4083 5.48371 2.17938 4.11279 3.55029C2.74188 4.92121 1.9708 6.77998 1.96875 8.71875V14.6482C1.96912 15.0149 2.11496 15.3665 2.37425 15.6258C2.63354 15.885 2.9851 16.0309 3.3518 16.0312H9.28125C11.2206 16.0312 13.0806 15.2608 14.452 13.8895C15.8233 12.5181 16.5938 10.6581 16.5938 8.71875C16.5938 6.77935 15.8233 4.91939 14.452 3.54803C13.0806 2.17667 11.2206 1.40625 9.28125 1.40625ZM9.28125 14.3438H3.65625V8.71875C3.65625 7.60623 3.98615 6.51869 4.60423 5.59367C5.22232 4.66864 6.10082 3.94767 7.12866 3.52193C8.15649 3.09618 9.28749 2.98479 10.3786 3.20183C11.4698 3.41887 12.4721 3.9546 13.2587 4.74127C14.0454 5.52794 14.5811 6.53022 14.7982 7.62137C15.0152 8.71251 14.9038 9.84351 14.4781 10.8713C14.0523 11.8992 13.3314 12.7777 12.4063 13.3958C11.4813 14.0138 10.3938 14.3438 9.28125 14.3438ZM8.71875 9C8.71875 9.2225 8.65277 9.44001 8.52915 9.62502C8.40554 9.81002 8.22984 9.95422 8.02427 10.0394C7.8187 10.1245 7.5925 10.1468 7.37427 10.1034C7.15604 10.06 6.95559 9.95283 6.79825 9.7955C6.64092 9.63816 6.53377 9.43771 6.49037 9.21948C6.44696 9.00125 6.46924 8.77505 6.55439 8.56948C6.63953 8.36391 6.78373 8.18821 6.96873 8.0646C7.15374 7.94098 7.37125 7.875 7.59375 7.875C7.89212 7.875 8.17827 7.99353 8.38925 8.2045C8.60022 8.41548 8.71875 8.70163 8.71875 9ZM12.0938 9C12.0938 9.2225 12.0278 9.44001 11.9042 9.62502C11.7805 9.81002 11.6048 9.95422 11.3993 10.0394C11.1937 10.1245 10.9675 10.1468 10.7493 10.1034C10.531 10.06 10.3306 9.95283 10.1733 9.7955C10.0159 9.63816 9.90877 9.43771 9.86537 9.21948C9.82196 9.00125 9.84424 8.77505 9.92939 8.56948C10.0145 8.36391 10.1587 8.18821 10.3437 8.0646C10.5287 7.94098 10.7462 7.875 10.9688 7.875C11.2671 7.875 11.5533 7.99353 11.7642 8.2045C11.9752 8.41548 12.0938 8.70163 12.0938 9Z" fill="#202227"/>
</svg>
