<svg width="60" height="60" viewBox="0 0 60 60" fill="none" xmlns="http://www.w3.org/2000/svg">
<path d="M27.8647 17.5563C28.8147 15.8521 29.2897 15 30 15C30.7102 15 31.1852 15.8521 32.1352 17.5563L32.381 17.9972C32.6507 18.4815 32.7857 18.7236 32.9962 18.8833C33.2067 19.0431 33.4687 19.1024 33.993 19.221L34.4702 19.329C36.315 19.7464 37.2375 19.9551 37.457 20.6608C37.6765 21.3665 37.0475 22.1018 35.79 23.5724L35.4645 23.9529C35.1072 24.3708 34.9285 24.5798 34.848 24.8383C34.7677 25.0968 34.7947 25.3755 34.8487 25.9332L34.898 26.4407C35.088 28.403 35.1832 29.384 34.6087 29.8202C34.034 30.2562 33.1705 29.8587 31.4432 29.0635L30.9965 28.8578C30.5055 28.6318 30.2602 28.5188 30 28.5188C29.7397 28.5188 29.4945 28.6318 29.0035 28.8578L28.5567 29.0635C26.8295 29.8587 25.966 30.2562 25.3912 29.8202C24.8168 29.384 24.9119 28.403 25.102 26.4407L25.1512 25.9332C25.2052 25.3755 25.2322 25.0968 25.152 24.8383C25.0715 24.5798 24.8928 24.3708 24.5354 23.9529L24.2101 23.5724C22.9524 22.1018 22.3236 21.3665 22.5431 20.6608C22.7625 19.9551 23.6849 19.7464 25.5297 19.329L26.007 19.221C26.5312 19.1024 26.7932 19.0431 27.0037 18.8833C27.2142 18.7236 27.3492 18.4815 27.619 17.9972L27.8647 17.5563Z" stroke="#979797" stroke-width="3"/>
<path d="M30 40.1695L20.5714 49.932C19.2211 51.3302 18.5459 52.0292 17.9742 52.271C16.6713 52.8222 15.226 52.3505 14.5407 51.1505C14.2399 50.6237 14.1462 49.6738 13.9587 47.7738C13.8529 46.701 13.8 46.1645 13.6394 45.7153C13.2798 44.7095 12.5241 43.927 11.5527 43.5547C11.1188 43.3885 10.6008 43.3338 9.56472 43.224C7.72967 43.03 6.81214 42.933 6.30344 42.6215C5.14429 41.912 4.68869 40.4155 5.22107 39.0665C5.45469 38.4745 6.12984 37.7755 7.48014 36.3773L13.6394 30" stroke="#979797" stroke-width="3"/>
<path d="M30 40.1695L39.4287 49.932C40.779 51.3302 41.454 52.0292 42.0258 52.271C43.3288 52.8222 44.774 52.3505 45.4592 51.1505C45.76 50.6237 45.8537 49.6738 46.0412 47.7738C46.147 46.701 46.2 46.1645 46.3605 45.7153C46.7203 44.7095 47.4757 43.927 48.4472 43.5547C48.8812 43.3885 49.3993 43.3338 50.4353 43.224C52.2703 43.03 53.1877 42.933 53.6965 42.6215C54.8557 41.912 55.3112 40.4155 54.779 39.0665C54.5452 38.4745 53.8702 37.7755 52.5197 36.3773L46.3605 30" stroke="#979797" stroke-width="3"/>
<path d="M13.75 15.9923C12.9436 18.004 12.5 20.2002 12.5 22.5C12.5 32.165 20.335 40 30 40C39.665 40 47.5 32.165 47.5 22.5C47.5 12.835 39.665 5 30 5C27.7002 5 25.504 5.44363 23.4923 6.25" stroke="#979797" stroke-width="3" stroke-linecap="round"/>
</svg>
