<svg width="12" height="21" viewBox="0 0 12 21" fill="none" xmlns="http://www.w3.org/2000/svg">
<path d="M0.297657 0.520944L11.6906 9.81801C12.1031 10.1555 12.1031 10.8463 11.6906 11.1812L0.297657 20.4809C0.269637 20.5038 0.23653 20.5175 0.202008 20.5205C0.167486 20.5235 0.132896 20.5157 0.102073 20.498C0.0712494 20.4802 0.0453967 20.4532 0.02738 20.42C0.00936324 20.3867 -0.000113564 20.3485 0 20.3095V18.332C0 18.1975 0.0585932 18.0709 0.154687 17.9918L9.33281 10.5009L0.154687 3.01001C0.0585932 2.93091 0 2.80434 0 2.66987V0.69233C0 0.520944 0.173438 0.420748 0.297657 0.520944V0.520944Z" fill="#232323"/>
</svg>
