<svg width="51" height="46" viewBox="0 0 51 46" fill="none" xmlns="http://www.w3.org/2000/svg">
<path fill-rule="evenodd" clip-rule="evenodd" d="M36.0992 11C36.0992 16.799 31.3982 21.5 25.5992 21.5C19.8003 21.5 15.0992 16.799 15.0992 11C15.0992 5.20101 19.8003 0.5 25.5992 0.5C31.3982 0.5 36.0992 5.20101 36.0992 11ZM32.5992 11C32.5992 14.866 29.4652 18 25.5992 18C21.7333 18 18.5992 14.866 18.5992 11C18.5992 7.13401 21.7333 4 25.5992 4C29.4652 4 32.5992 7.13401 32.5992 11Z" fill="#232323"/>
<path d="M25.5992 26.75C14.2691 26.75 4.61547 33.4497 0.938171 42.8361C1.83399 43.7256 2.77766 44.567 3.765 45.3561C6.50329 36.7385 15.0935 30.25 25.5992 30.25C36.105 30.25 44.6952 36.7385 47.4335 45.3561C48.4208 44.5671 49.3645 43.7256 50.2603 42.8361C46.583 33.4497 36.9294 26.75 25.5992 26.75Z" fill="#232323"/>
</svg>
