<svg width="11" height="19" viewBox="0 0 11 19" fill="none" xmlns="http://www.w3.org/2000/svg">
<path d="M10.2959 10.2959L2.7959 17.7959C2.58455 18.0072 2.29791 18.126 1.99902 18.126C1.70014 18.126 1.41349 18.0072 1.20215 17.7959C0.990802 17.5846 0.87207 17.2979 0.87207 16.999C0.87207 16.7001 0.990802 16.4135 1.20215 16.2021L7.90621 9.49996L1.20402 2.7959C1.09937 2.69125 1.01636 2.56702 0.959729 2.43029C0.903095 2.29356 0.873945 2.14702 0.873945 1.99902C0.873945 1.85103 0.903095 1.70448 0.959729 1.56776C1.01636 1.43103 1.09937 1.30679 1.20402 1.20215C1.30867 1.0975 1.4329 1.01449 1.56963 0.957855C1.70636 0.90122 1.8529 0.87207 2.0009 0.87207C2.14889 0.87207 2.29543 0.90122 2.43216 0.957855C2.56889 1.01449 2.69312 1.0975 2.79777 1.20215L10.2978 8.70215C10.4025 8.80679 10.4856 8.93108 10.5422 9.06789C10.5988 9.2047 10.6279 9.35135 10.6277 9.49941C10.6275 9.64748 10.5981 9.79405 10.5412 9.93073C10.4843 10.0674 10.4009 10.1915 10.2959 10.2959Z" fill="#202227"/>
</svg>
