<svg width="18" height="18" viewBox="0 0 18 18" fill="none" xmlns="http://www.w3.org/2000/svg">
<path d="M9 6.46875C9.50063 6.46875 9.99003 6.32029 10.4063 6.04216C10.8225 5.76402 11.147 5.36869 11.3386 4.90617C11.5302 4.44364 11.5803 3.93469 11.4826 3.44368C11.3849 2.95266 11.1439 2.50164 10.7899 2.14764C10.4359 1.79363 9.98484 1.55256 9.49382 1.45489C9.00281 1.35722 8.49386 1.40734 8.03133 1.59893C7.56881 1.79051 7.17348 2.11495 6.89534 2.53121C6.61721 2.94747 6.46875 3.43687 6.46875 3.9375C6.46875 4.60883 6.73543 5.25266 7.21014 5.72736C7.68484 6.20206 8.32867 6.46875 9 6.46875ZM9 3.09375C9.16688 3.09375 9.33001 3.14323 9.46876 3.23595C9.60752 3.32866 9.71566 3.46043 9.77952 3.61461C9.84338 3.76879 9.86009 3.93844 9.82754 4.10211C9.79498 4.26578 9.71462 4.41612 9.59662 4.53412C9.47862 4.65212 9.32828 4.73248 9.16461 4.76504C9.00094 4.79759 8.83129 4.78088 8.67711 4.71702C8.52294 4.65316 8.39116 4.54502 8.29845 4.40626C8.20573 4.26751 8.15625 4.10438 8.15625 3.9375C8.15625 3.71372 8.24514 3.49911 8.40338 3.34088C8.56161 3.18264 8.77622 3.09375 9 3.09375ZM3.09375 6.75C3.09375 6.47187 3.17623 6.19999 3.33075 5.96873C3.48527 5.73747 3.70489 5.55723 3.96185 5.45079C4.21881 5.34436 4.50156 5.31651 4.77435 5.37077C5.04713 5.42503 5.2977 5.55896 5.49437 5.75563C5.69104 5.9523 5.82497 6.20287 5.87923 6.47565C5.93349 6.74844 5.90564 7.03119 5.79921 7.28815C5.69277 7.54511 5.51253 7.76473 5.28127 7.91925C5.05001 8.07377 4.77813 8.15625 4.5 8.15625C4.12704 8.15625 3.76935 8.00809 3.50563 7.74437C3.24191 7.48065 3.09375 7.12296 3.09375 6.75ZM16.0312 7.9875C16.0318 8.14678 15.9872 8.30296 15.9027 8.43798C15.8182 8.573 15.6972 8.68134 15.5537 8.75048C15.4102 8.81961 15.2501 8.84672 15.0919 8.82866C14.9336 8.81061 14.7837 8.74812 14.6595 8.64844C14.6595 8.64844 13.1829 7.56 10.909 8.66812C10.8851 9.00211 10.8387 9.43734 10.7592 9.93375L12.915 11.7302C13.0452 11.8388 13.1396 11.9841 13.186 12.1472C13.2324 12.3102 13.2286 12.4834 13.1752 12.6443L12.0502 16.0193C12.0173 16.127 11.9631 16.227 11.891 16.3135C11.8188 16.3999 11.7301 16.4711 11.63 16.5227C11.5299 16.5743 11.4205 16.6054 11.3083 16.6141C11.196 16.6228 11.0831 16.6089 10.9763 16.5733C10.8694 16.5377 10.7708 16.481 10.6862 16.4067C10.6016 16.3323 10.5328 16.2418 10.4837 16.1405C10.4347 16.0391 10.4064 15.9289 10.4006 15.8165C10.3948 15.704 10.4115 15.5915 10.4498 15.4856L11.3906 12.6562L10.305 11.752C10.1898 12.0928 10.0555 12.4269 9.90281 12.7526C8.87344 14.9323 7.13672 16.4039 4.74047 17.1225C4.6624 17.1455 4.58138 17.1568 4.5 17.1562C4.29719 17.1566 4.10103 17.0839 3.94744 16.9515C3.79384 16.8191 3.69309 16.6357 3.66363 16.4351C3.63418 16.2344 3.67798 16.0298 3.78703 15.8588C3.89607 15.6878 4.06306 15.5618 4.25742 15.5039C6.91805 14.7059 8.53031 12.7821 9.0675 9.77766C7.38 10.7297 6.03633 10.973 5.09766 10.973C4.58259 10.9697 4.07168 10.8806 3.58594 10.7093C3.38862 10.6141 3.23605 10.4459 3.1605 10.2403C3.08494 10.0347 3.09234 9.80771 3.18111 9.60743C3.26988 9.40715 3.43307 9.24924 3.63616 9.16711C3.83926 9.08498 4.06634 9.08506 4.26938 9.16734C4.29961 9.1793 6.05672 9.83742 9.08578 7.77797C12.9326 5.16375 15.7134 7.32937 15.7134 7.32937C15.8124 7.40823 15.8923 7.50832 15.9473 7.62224C16.0023 7.73616 16.031 7.86099 16.0312 7.9875Z" fill="#202227"/>
</svg>
