<svg width="14" height="24" viewBox="0 0 14 24" fill="none" xmlns="http://www.w3.org/2000/svg">
<path d="M13.0612 13.0613L3.0612 23.0613C2.7794 23.343 2.39721 23.5014 1.9987 23.5014C1.60018 23.5014 1.21799 23.343 0.936195 23.0613C0.654403 22.7795 0.496094 22.3973 0.496094 21.9988C0.496094 21.6002 0.654403 21.218 0.936195 20.9363L9.87495 12L0.938696 3.06126C0.799166 2.92173 0.688485 2.75608 0.612972 2.57378C0.537459 2.39147 0.498593 2.19608 0.498593 1.99876C0.498593 1.80143 0.537459 1.60604 0.612972 1.42374C0.688485 1.24143 0.799166 1.07579 0.938696 0.936257C1.07823 0.796727 1.24387 0.686047 1.42618 0.610534C1.60848 0.535021 1.80387 0.496155 2.0012 0.496155C2.19852 0.496155 2.39391 0.535021 2.57622 0.610534C2.75852 0.686047 2.92417 0.796727 3.0637 0.936257L13.0637 10.9363C13.2034 11.0758 13.3141 11.2415 13.3896 11.4239C13.4651 11.6063 13.5039 11.8019 13.5036 11.9993C13.5034 12.1967 13.4642 12.3921 13.3883 12.5744C13.3123 12.7566 13.2012 12.9221 13.0612 13.0613Z" fill="white"/>
</svg>
