<svg width="19" height="19" viewBox="0 0 19 19" fill="none" xmlns="http://www.w3.org/2000/svg">
<path d="M17.4293 18.5L11.1293 12.2C10.6293 12.6 10.0543 12.9167 9.40435 13.15C8.75435 13.3833 8.06268 13.5 7.32935 13.5C5.51268 13.5 3.97518 12.8708 2.71685 11.6125C1.45851 10.3542 0.829346 8.81667 0.829346 7C0.829346 5.18333 1.45851 3.64583 2.71685 2.3875C3.97518 1.12917 5.51268 0.5 7.32935 0.5C9.14601 0.5 10.6835 1.12917 11.9418 2.3875C13.2002 3.64583 13.8293 5.18333 13.8293 7C13.8293 7.73333 13.7127 8.425 13.4793 9.075C13.246 9.725 12.9293 10.3 12.5293 10.8L18.8293 17.1L17.4293 18.5ZM7.32935 11.5C8.57935 11.5 9.64185 11.0625 10.5168 10.1875C11.3918 9.3125 11.8293 8.25 11.8293 7C11.8293 5.75 11.3918 4.6875 10.5168 3.8125C9.64185 2.9375 8.57935 2.5 7.32935 2.5C6.07935 2.5 5.01685 2.9375 4.14185 3.8125C3.26685 4.6875 2.82935 5.75 2.82935 7C2.82935 8.25 3.26685 9.3125 4.14185 10.1875C5.01685 11.0625 6.07935 11.5 7.32935 11.5Z" fill="white"/>
</svg>
