<svg width="15" height="16" viewBox="0 0 15 16" fill="none" xmlns="http://www.w3.org/2000/svg">
<path d="M6 3.5H9C9 3.10218 8.84196 2.72064 8.56066 2.43934C8.27936 2.15804 7.89782 2 7.5 2C7.10218 2 6.72064 2.15804 6.43934 2.43934C6.15804 2.72064 6 3.10218 6 3.5ZM4.5 3.5C4.5 2.70435 4.81607 1.94129 5.37868 1.37868C5.94129 0.816071 6.70435 0.5 7.5 0.5C8.29565 0.5 9.05871 0.816071 9.62132 1.37868C10.1839 1.94129 10.5 2.70435 10.5 3.5H14.25C14.4489 3.5 14.6397 3.57902 14.7803 3.71967C14.921 3.86032 15 4.05109 15 4.25C15 4.44891 14.921 4.63968 14.7803 4.78033C14.6397 4.92098 14.4489 5 14.25 5H13.5885L12.924 12.755C12.8601 13.5038 12.5175 14.2014 11.9639 14.7098C11.4103 15.2181 10.6861 15.5001 9.9345 15.5H5.0655C4.31393 15.5001 3.58971 15.2181 3.03611 14.7098C2.48252 14.2014 2.13988 13.5038 2.076 12.755L1.4115 5H0.75C0.551088 5 0.360322 4.92098 0.21967 4.78033C0.0790176 4.63968 0 4.44891 0 4.25C0 4.05109 0.0790176 3.86032 0.21967 3.71967C0.360322 3.57902 0.551088 3.5 0.75 3.5H4.5ZM9.75 8C9.75 7.80109 9.67098 7.61032 9.53033 7.46967C9.38968 7.32902 9.19891 7.25 9 7.25C8.80109 7.25 8.61032 7.32902 8.46967 7.46967C8.32902 7.61032 8.25 7.80109 8.25 8V11C8.25 11.1989 8.32902 11.3897 8.46967 11.5303C8.61032 11.671 8.80109 11.75 9 11.75C9.19891 11.75 9.38968 11.671 9.53033 11.5303C9.67098 11.3897 9.75 11.1989 9.75 11V8ZM6 7.25C6.19891 7.25 6.38968 7.32902 6.53033 7.46967C6.67098 7.61032 6.75 7.80109 6.75 8V11C6.75 11.1989 6.67098 11.3897 6.53033 11.5303C6.38968 11.671 6.19891 11.75 6 11.75C5.80109 11.75 5.61032 11.671 5.46967 11.5303C5.32902 11.3897 5.25 11.1989 5.25 11V8C5.25 7.80109 5.32902 7.61032 5.46967 7.46967C5.61032 7.32902 5.80109 7.25 6 7.25ZM3.57 12.6275C3.60195 13.0021 3.77338 13.351 4.05033 13.6051C4.32729 13.8593 4.68959 14.0002 5.0655 14H9.9345C10.3102 13.9999 10.6721 13.8588 10.9487 13.6046C11.2254 13.3505 11.3966 13.0018 11.4285 12.6275L12.0825 5H2.9175L3.57 12.6275Z" fill="black"/>
</svg>
